HIERARCHY
ROOT Hips
{
	OFFSET 0.000000 89.005402 0.000000
	CHANNELS 6 Xposition Yposition Zposition Xrotation Yrotation Zrotation
	JOINT Spine
	{
		OFFSET 0.116900 10.681000 0.373400
		CHANNELS 3 Xrotation Yrotation Zrotation
		JOINT Spine1
		{
			OFFSET 0.000000 13.840401 0.053500
			CHANNELS 3 Xrotation Yrotation Zrotation
			JOINT Spine2
			{
				OFFSET 0.000000 14.712700 -0.366200
				CHANNELS 3 Xrotation Yrotation Zrotation
				JOINT Neck
				{
					OFFSET 0.000000 35.415497 -3.314200
					CHANNELS 3 Xrotation Yrotation Zrotation
					JOINT Head
					{
						OFFSET 0.000000 16.899200 1.218300
						CHANNELS 3 Xrotation Yrotation Zrotation
						JOINT HeadTop_End
						{
							OFFSET 0.000000 22.206207 2.192500
							CHANNELS 3 Xrotation Yrotation Zrotation
							End Site
							{
								OFFSET 0.000000 22.314178 0.000000
							}
						}
					}
				}
				JOINT LeftShoulder
				{
					OFFSET 12.896400 26.716293 -4.548400
					CHANNELS 3 Xrotation Yrotation Zrotation
					JOINT LeftArm
					{
						OFFSET 19.027000 -4.857010 -1.718400
						CHANNELS 3 Xrotation Yrotation Zrotation
						JOINT LeftForeArm
						{
							OFFSET 24.179897 0.000000 0.000000
							CHANNELS 3 Xrotation Yrotation Zrotation
							JOINT LeftHand
							{
								OFFSET 27.156403 0.000000 0.000000
								CHANNELS 3 Xrotation Yrotation Zrotation
								JOINT LeftHandIndex1
								{
									OFFSET 16.441200 0.000000 0.000000
									CHANNELS 3 Xrotation Yrotation Zrotation
									JOINT LeftHandIndex2
									{
										OFFSET 4.821899 0.000000 0.000000
										CHANNELS 3 Xrotation Yrotation Zrotation
										JOINT LeftHandIndex3
										{
											OFFSET 6.386497 0.000000 0.000000
											CHANNELS 3 Xrotation Yrotation Zrotation
											JOINT LeftHandIndex4
											{
												OFFSET 5.188988 0.000000 0.000000
												CHANNELS 3 Xrotation Yrotation Zrotation
												End Site
												{
													OFFSET -0.178703 5.185913 0.000177
												}
											}
										}
									}
								}
								JOINT LeftHandThumb1
								{
									OFFSET 6.534897 -5.032593 5.900300
									CHANNELS 3 Xrotation Yrotation Zrotation
									JOINT LeftHandThumb2
									{
										OFFSET 3.818176 -2.204422 2.204423
										CHANNELS 3 Xrotation Yrotation Zrotation
										JOINT LeftHandThumb3
										{
											OFFSET 3.252098 -1.877594 1.877601
											CHANNELS 3 Xrotation Yrotation Zrotation
											JOINT LeftHandThumb4
											{
												OFFSET 5.251778 -3.032120 3.032117
												CHANNELS 3 Xrotation Yrotation Zrotation
												End Site
												{
													OFFSET 0.000023 6.780014 0.000000
												}
											}
										}
									}
								}
							}
						}
					}
				}
				JOINT RightShoulder
				{
					OFFSET -12.896300 26.716293 -4.548400
					CHANNELS 3 Xrotation Yrotation Zrotation
					JOINT RightArm
					{
						OFFSET -19.027000 -4.857010 -1.718400
						CHANNELS 3 Xrotation Yrotation Zrotation
						JOINT RightForeArm
						{
							OFFSET -24.179897 0.000000 0.000000
							CHANNELS 3 Xrotation Yrotation Zrotation
							JOINT RightHand
							{
								OFFSET -27.156403 0.000000 0.000000
								CHANNELS 3 Xrotation Yrotation Zrotation
								JOINT RightHandThumb1
								{
									OFFSET -6.591202 -4.852203 5.988100
									CHANNELS 3 Xrotation Yrotation Zrotation
									JOINT RightHandThumb2
									{
										OFFSET -3.818176 -2.204422 2.204423
										CHANNELS 3 Xrotation Yrotation Zrotation
										JOINT RightHandThumb3
										{
											OFFSET -3.252098 -1.877594 1.877601
											CHANNELS 3 Xrotation Yrotation Zrotation
											JOINT RightHandThumb4
											{
												OFFSET -5.251778 -3.032120 3.032117
												CHANNELS 3 Xrotation Yrotation Zrotation
												End Site
												{
													OFFSET -0.000023 6.780014 0.000000
												}
											}
										}
									}
								}
								JOINT RightHandIndex1
								{
									OFFSET -16.029404 0.000000 0.000000
									CHANNELS 3 Xrotation Yrotation Zrotation
									JOINT RightHandIndex2
									{
										OFFSET -5.213303 0.000000 0.000000
										CHANNELS 3 Xrotation Yrotation Zrotation
										JOINT RightHandIndex3
										{
											OFFSET -6.386528 0.000000 0.000000
											CHANNELS 3 Xrotation Yrotation Zrotation
											JOINT RightHandIndex4
											{
												OFFSET -5.189026 0.000000 0.000000
												CHANNELS 3 Xrotation Yrotation Zrotation
												End Site
												{
													OFFSET 0.236702 5.183624 0.001972
												}
											}
										}
									}
								}
							}
						}
					}
				}
			}
		}
	}
	JOINT LeftUpLeg
	{
		OFFSET 14.073000 -7.904099 -1.463000
		CHANNELS 3 Xrotation Yrotation Zrotation
		JOINT LeftLeg
		{
			OFFSET -0.109806 -34.073280 4.093200
			CHANNELS 3 Xrotation Yrotation Zrotation
			JOINT LeftFoot
			{
				OFFSET 0.109806 -29.899420 -6.319000
				CHANNELS 3 Xrotation Yrotation Zrotation
				JOINT LeftToeBase
				{
					OFFSET 1.551100 -14.988700 20.535801
					CHANNELS 3 Xrotation Yrotation Zrotation
					JOINT LeftToe_End
					{
						OFFSET 0.221200 0.570800 13.248301
						CHANNELS 3 Xrotation Yrotation Zrotation
						End Site
						{
							OFFSET 0.000000 13.262435 0.000000
						}
					}
				}
			}
		}
	}
	JOINT RightUpLeg
	{
		OFFSET -13.839300 -7.904099 -1.463000
		CHANNELS 3 Xrotation Yrotation Zrotation
		JOINT RightLeg
		{
			OFFSET 0.109694 -34.073219 4.093300
			CHANNELS 3 Xrotation Yrotation Zrotation
			JOINT RightFoot
			{
				OFFSET -0.109694 -29.899384 -6.319200
				CHANNELS 3 Xrotation Yrotation Zrotation
				JOINT RightToeBase
				{
					OFFSET -1.551100 -14.988700 20.535801
					CHANNELS 3 Xrotation Yrotation Zrotation
					JOINT RightToe_End
					{
						OFFSET -0.221200 0.570900 13.248299
						CHANNELS 3 Xrotation Yrotation Zrotation
						End Site
						{
							OFFSET 0.000000 13.262440 0.000000
						}
					}
				}
			}
		}
	}
}
MOTION
Frames: 6
Frame Time: 0.033333
0.056730 84.326927 0.553179 -2.257736 -0.173946 -1.738426 1.818178 -1.398093 1.708337 3.579706 -2.533198 0.673625 3.579705 -2.533198 0.673625 -2.425395 1.360552 -0.177269 -0.112015 5.844294 -0.079477 0.000000 -0.000000 0.000000 0.442704 -8.235236 -13.151903 -0.624807 -8.808436 -59.472267 19.132393 -19.316356 6.827570 -5.405346 -8.531752 1.793577 0.599980 6.911488 -23.883887 2.733492 1.542695 -36.765952 4.400532 -2.444493 -4.361227 0.000000 0.000001 0.000001 25.111245 -2.687274 20.499098 9.304958 24.441171 -0.847869 -2.521163 -8.459275 -4.290578 0.000000 -0.000001 0.000001 0.662845 2.643785 20.148730 -3.947855 -2.327095 62.260323 16.631072 11.939507 -3.786022 -4.421758 12.103412 -12.551311 3.824830 -12.345965 -1.042556 4.523886 -9.504800 0.488641 3.860022 -12.119584 -3.867359 0.000000 -0.000001 0.000000 3.545366 -9.668648 69.326707 8.886347 -3.241706 112.372560 5.374740 0.824713 34.768173 -0.000000 -0.000002 0.000001 -20.941812 5.283964 0.717844 63.654563 21.294295 1.389472 -3.303534 0.481413 2.279948 -24.436556 5.847529 -15.291810 -0.000001 0.000000 0.000000 -12.898390 -2.931285 7.248578 27.013101 -6.917532 -0.340237 -13.866988 0.588340 -4.242340 3.382041 -0.000002 -0.000003 -0.000000 0.000000 -0.000000 
-0.064472 84.796982 4.269292 -1.694092 -3.632673 -0.757204 1.716754 -1.073509 1.375493 3.396131 -2.165340 0.509868 3.396132 -2.165339 0.509867 -2.548811 1.075378 -0.490703 0.308370 4.811538 2.004951 0.000000 0.000000 0.000000 0.443978 -7.705101 -13.385143 2.657251 -6.145206 -62.455093 18.629758 -18.468133 6.370692 -5.533638 -6.857791 0.085592 0.599979 6.911488 -23.883893 2.733489 1.542697 -36.765955 4.400531 -2.444493 -4.361227 0.000002 0.000001 0.000002 25.111242 -2.687274 20.499098 9.304953 24.441176 -0.847868 -2.521158 -8.459271 -4.290578 0.000001 0.000001 0.000000 0.613503 3.121084 19.503535 -4.149181 -2.019590 62.294529 18.038046 12.267383 -4.245616 -4.453218 12.110067 -12.658318 3.824829 -12.345966 -1.042558 4.523886 -9.504798 0.488644 3.860023 -12.119584 -3.867357 -0.000000 0.000001 0.000001 3.545365 -9.668648 69.326707 8.886347 -3.241706 112.372567 5.374740 0.824715 34.768170 0.000000 -0.000000 0.000000 -26.175249 3.884530 -1.216951 55.883976 19.579999 2.160484 -5.894070 -0.109993 4.879046 -11.926771 1.902844 -12.306998 -0.000000 0.000000 -0.000000 -10.252638 -2.270258 6.340992 26.109144 -4.135312 -0.457125 -15.352218 0.877932 -4.387156 3.379445 -0.000004 -0.000001 0.000000 0.000001 -0.000000 
-0.224897 85.068062 7.847193 -1.205880 -6.956649 0.173928 1.671653 -0.883703 1.004399 3.319438 -1.954671 0.349901 3.319441 -1.954676 0.349901 -2.561790 0.351944 -0.262616 0.908092 3.445158 3.908312 -0.000000 -0.000000 -0.000000 0.441134 -7.838567 -13.209257 5.516493 -3.881247 -65.910485 17.459082 -16.634974 5.404658 -5.524120 -5.117753 -1.512251 0.599979 6.911487 -23.883887 2.733493 1.542697 -36.765952 4.400529 -2.444491 -4.361226 0.000001 -0.000001 -0.000001 25.111240 -2.687273 20.499100 9.304953 24.441175 -0.847866 -2.521160 -8.459269 -4.290578 -0.000000 -0.000001 0.000000 0.597634 3.297690 19.145510 -4.518582 -1.703184 62.213202 19.588627 12.249553 -4.650708 -4.432675 12.536324 -13.023114 3.824830 -12.345967 -1.042555 4.523887 -9.504799 0.488643 3.860023 -12.119585 -3.867357 0.000001 0.000001 0.000002 3.545366 -9.668647 69.326707 8.886348 -3.241708 112.372560 5.374742 0.824714 34.768170 0.000000 0.000002 0.000000 -29.808503 3.947667 -1.204806 44.096828 11.956328 2.516849 -1.930801 -0.511974 8.717368 -6.288259 0.450297 -6.006639 0.000000 -0.000000 -0.000000 -7.971837 -1.849614 5.152442 25.873986 -1.637020 -0.523464 -16.883053 1.165672 -4.351236 2.168299 0.008360 -0.375019 0.000000 -0.000000 0.000000 
-0.434307 85.117386 11.294533 -0.938145 -10.346282 0.982121 1.695823 -0.798569 0.655577 3.376247 -1.845993 0.181925 3.376244 -1.845994 0.181925 -2.446433 -0.689681 0.343234 1.606856 1.832553 5.668699 -0.000001 -0.000000 -0.000001 0.439133 -8.497122 -12.763873 7.627590 -2.048130 -69.384634 15.760930 -13.985951 4.137803 -5.423849 -3.700664 -2.924751 0.599976 6.911488 -23.883887 2.733491 1.542697 -36.765955 4.400530 -2.444493 -4.361228 0.000001 -0.000002 -0.000002 25.111240 -2.687274 20.499100 9.304958 24.441178 -0.847868 -2.521158 -8.459272 -4.290577 0.000002 -0.000000 -0.000000 0.605793 3.202239 19.090015 -5.039337 -1.318731 62.011943 21.417395 12.102306 -5.087898 -4.411261 13.144409 -13.550264 3.824830 -12.345970 -1.042554 4.523887 -9.504799 0.488641 3.860023 -12.119583 -3.867356 -0.000000 -0.000000 0.000000 3.545365 -9.668647 69.326707 8.886348 -3.241705 112.372567 5.374740 0.824717 34.768166 0.000001 -0.000001 0.000001 -32.876252 4.977474 -0.307019 37.387233 1.987288 2.386475 -5.778489 -0.697818 10.503295 -0.893469 0.031091 0.007124 -0.000000 -0.000000 -0.000000 -6.054611 -1.065593 3.907001 26.394242 0.060817 -0.528049 -18.253790 1.503737 -4.353756 -0.096258 0.021727 -0.355593 -0.000000 -0.000000 0.000000 
-0.688713 84.946564 14.693159 -0.957319 -14.141333 1.654975 1.767814 -0.764369 0.358832 3.525349 -1.767619 -0.001896 3.525347 -1.767617 -0.001896 -2.123768 -1.892715 1.140988 2.349550 0.157095 7.337076 -0.000000 -0.000001 0.000001 0.446038 -9.262042 -12.335310 8.871127 -0.633475 -72.184082 13.758853 -10.865193 2.847702 -5.366486 -3.117280 -3.840578 0.599979 6.911489 -23.883886 2.733491 1.542697 -36.765952 4.400527 -2.444495 -4.361224 -0.000002 -0.000003 0.000000 25.111240 -2.687273 20.499100 9.304954 24.441180 -0.847867 -2.521160 -8.459268 -4.290576 -0.000000 -0.000000 -0.000000 0.619540 3.045071 19.226441 -5.616359 -0.806872 61.734166 23.488522 11.893075 -5.564786 -4.430106 13.772427 -14.124786 3.824831 -12.345969 -1.042555 4.523887 -9.504797 0.488643 3.860024 -12.119585 -3.867353 0.000001 0.000000 -0.000000 3.545366 -9.668648 69.326707 8.886349 -3.241706 112.372567 5.374739 0.824716 34.768170 -0.000001 0.000001 -0.000000 -34.414414 5.717251 1.363380 32.035909 -8.196487 1.524382 -8.331741 -0.511590 10.689478 -0.353019 0.032003 0.014506 0.000001 0.000001 -0.000000 -4.679007 1.165092 2.807580 28.230010 0.346414 -0.472476 -19.865737 1.974384 -4.550322 -2.345642 -0.017965 0.191964 0.000000 0.000000 -0.000000 
-0.975760 84.632416 18.139069 -1.178336 -18.511582 2.289787 1.832808 -0.756434 0.101523 3.658667 -1.702076 -0.194173 3.658667 -1.702071 -0.194175 -1.530803 -3.089924 1.884379 3.109647 -1.394206 8.941524 0.000001 0.000002 -0.000002 0.450839 -9.640229 -12.195069 9.464175 0.091184 -73.717255 11.560851 -7.853340 1.771771 -5.435351 -3.566175 -3.649767 0.599980 6.911488 -23.883887 2.733491 1.542697 -36.765955 4.400532 -2.444489 -4.361226 0.000001 0.000002 0.000000 25.111240 -2.687273 20.499098 9.304955 24.441178 -0.847866 -2.521162 -8.459273 -4.290578 -0.000000 -0.000000 -0.000001 0.620062 3.049768 19.375117 -5.937476 -0.270447 61.404446 25.671367 11.833818 -6.140912 -4.515885 14.290579 -14.585449 3.824830 -12.345968 -1.042553 4.523887 -9.504798 0.488642 3.860022 -12.119583 -3.867360 0.000000 -0.000001 -0.000001 3.545366 -9.668648 69.326700 8.886344 -3.241708 112.372567 5.374739 0.824716 34.768170 -0.000000 -0.000000 -0.000001 -34.079796 5.597458 3.543132 27.778535 -14.345713 0.332175 -8.601399 -0.045668 7.499941 -0.802587 -0.047664 0.033821 -0.000000 0.000000 -0.000000 -3.931762 5.552597 1.952638 31.833111 -0.931734 -0.369605 -22.420098 2.535057 -4.767878 -2.943445 -0.103933 1.217435 0.000000 0.000000 -0.000000 
